{"title":"New Tricks S11E10 x264 RB58.mp4","uid":11255076,"size":660134669,"categoryP":"video","categoryS":"tv_shows","magnet":"?xt=urn:btih:daaa5816779270cd51bbdb58d4e133e71e23aeea&amp;dn=New+Tricks+S11E10+x264+RB58.mp4&amp;tr=udp%3A%2F%2Ftracker.openbittorrent.com%3A80&amp;tr=udp%3A%2F%2Fopen.demonii.com%3A1337&amp;tr=udp%3A%2F%2Ftracker.coppersurfer.tk%3A6969&amp;tr=udp%3A%2F%2Fexodus.desync.com%3A6969","seeders":4,"leechers":0,"uploader":"RedBaron58","files":1,"time":1413888425,"description":"New Tricks S11E10 Breadcrumbs - The Queen's Speech x264 mp4\n &lt;a href=&quot;\nhttp://www.imdb.com/title/tt0362357/&quot; rel=&quot;nofollow&quot; target=&quot;_NEW&quot;&gt;\nhttp://www.imdb.com/title/tt0362357/&lt;/a&gt;\n\nTrailer: &lt;a href=&quot;\nhttp://www.bbc.co.uk/programmes/p024vpz2&quot; rel=&quot;nofollow&quot; target=&quot;_NEW&quot;&gt;\nhttp://www.bbc.co.uk/programmes/p024vpz2&lt;/a&gt;\n\n\nPlease be patient My intial upload speed is limited.\nThank you for your kind comments and thumbs ups on my other torrents, your feedback is welcome.\n\n\nAbout the Episode:\nBack in 1983, 16-year-old Amy Taskerland was murdered on the night of the school disco. More than 30 years \nlater, the unearthing of a time capsule and the discovery of her voice on a mix tape inside prompts Miller \nand co to delve back into the case, starting by interviewing Amy's best friend Harriet and her former \nteacher Mr Hines. \nThe recording features a strange mix of music and poetry, including words from a speech written in secret \nfor the Queen for broadcast in the event of a nuclear war.\n\nStarring Dennis Waterman, Tamzin Outhwaite and Nicholas Lyndhurst \n\n\nI hope you enjoy.\n\nTechnical:\n\nGeneral\nComplete name                            : H:New Tricks S11E10 x264 RB58.mp4\nFormat                                   : MPEG-4\nFormat profile                           : Base Media\nCodec ID                                 : isom\nFile size                                : 630 MiB\nDuration                                 : 58mn 34s\nOverall bit rate mode                    : Constant\nOverall bit rate                         : 1 503 Kbps\nWriting application                      : Lavf54.63.104\n\nVideo\nID                                       : 1\nFormat                                   : AVC\nFormat/Info                              : Advanced Video Codec\nFormat profile                           : &lt;a class=&quot;__cf_email__&quot; href=&quot;/cdn-cgi/l/email-protection&quot; data-cfemail=&quot;226f434b4c626e110c13&quot;&gt;[email&amp;#160;protected]&lt;/a&gt;&lt;script cf-hash='f9e31' type=&quot;text/javascript&quot;&gt;\n/* &lt;![CDATA[ */!function(){try{var t=&quot;currentScript&quot;in document?document.currentScript:function(){for(var t=document.getElementsByTagName(&quot;script&quot;),e=t.length;e--;)if(t[e].getAttribute(&quot;cf-hash&quot;))return t[e]}();if(t&amp;&amp;t.previousSibling){var e,r,n,i,c=t.previousSibling,a=c.getAttribute(&quot;data-cfemail&quot;);if(a){for(e=&quot;&quot;,r=parseInt(a.substr(0,2),16),n=2;a.length-n;n+=2)i=parseInt(a.substr(n,2),16)^r,e+=String.fromCharCode(i);e=document.createTextNode(e),c.parentNode.replaceChild(e,c)}}}catch(u){}}();/* ]]&gt; */&lt;/script&gt;\nFormat settings, CABAC                   : Yes\nFormat settings, ReFrames                : 3 frames\nCodec ID                                 : avc1\nCodec ID/Info                            : Advanced Video Coding\nDuration                                 : 58mn 34s\nBit rate mode                            : Constant\nBit rate                                 : 1 404 Kbps\nWidth                                    : 832 pixels\nHeight                                   : 468 pixels\nDisplay aspect ratio                     : 16:9\nFrame rate mode                          : Constant\nFrame rate                               : 25.000 fps\nColor space                              : YUV\nChroma subsampling                       : 4:2:0\nBit depth                                : 8 bits\nScan type                                : Progressive\nBits/(Pixel*Frame)                       : 0.144\nStream size                              : 588 MiB (93%)\n\nAudio\nID                                       : 2\nFormat                                   : AAC\nFormat/Info                              : Advanced Audio Codec\nFormat profile                           : LC\nCodec ID                                 : 40\nDuration                                 : 58mn 34s\nBit rate mode                            : Constant\nBit rate                                 : 93.5 Kbps\nChannel(s)                               : 2 channels\nChannel positions                        : Front: L R\nSampling rate                            : 48.0 KHz\nCompression mode                         : Lossy\nStream size                              : 39.2 MiB (6%)","torrent":{"xt":"urn:btih:daaa5816779270cd51bbdb58d4e133e71e23aeea","amp;dn":"New+Tricks+S11E10+x264+RB58.mp4","amp;tr":["udp%3A%2F%2Ftracker.openbittorrent.com%3A80","udp%3A%2F%2Fopen.demonii.com%3A1337","udp%3A%2F%2Ftracker.coppersurfer.tk%3A6969","udp%3A%2F%2Fexodus.desync.com%3A6969"],"infoHash":"daaa5816779270cd51bbdb58d4e133e71e23aeea","infoHashBuffer":{"type":"Buffer","data":[218,170,88,22,119,146,112,205,81,187,219,88,212,225,51,231,30,35,174,234]},"announce":[],"urlList":[]}}